<svg version="1.1"
     baseProfile="full"
     xmlns="http://www.w3.org/2000/svg"
     display="none"
>

    <symbol id="icon" viewBox="0 0 28 28">
        <path d="M8.75 7.875V0H19.25V7.875H8.75ZM19.25 12.25H28V28H0V12.25H8.75V20.125H19.25V12.25Z" fill="white"/>
    </symbol>


    <symbol id="like" viewBox="0 0 23 21">
        <path d="M13.0516 20.2443C12.1779 21.0597 10.8329 21.0597 9.95928 20.2325L9.83283 20.1143C3.79765 14.501 -0.145337 10.8257 0.00410514 6.24047C0.0730786 4.23147 1.07319 2.30521 2.69407 1.17072C5.7289 -0.956453 9.47646 0.0362259 11.4997 2.47065C13.5229 0.0362259 17.2705 -0.96827 20.3053 1.17072C21.9262 2.30521 22.9263 4.23147 22.9953 6.24047C23.1562 10.8257 19.2017 14.501 13.1665 20.138L13.0516 20.2443Z"/>
    </symbol>

    <symbol id="time" viewBox="0 0 26 26">
        <path fill-rule="evenodd" clip-rule="evenodd" d="M4.48945 13.0019C4.48945 7.53106 9.00695 3.10022 14.5211 3.25189C19.602 3.39272 23.8486 7.63939 23.9895 12.7202C24.1411 18.2344 19.7103 22.7519 14.2395 22.7519C11.9753 22.7519 9.90612 21.9827 8.25945 20.6827C7.75029 20.2927 7.71779 19.5236 8.17279 19.0686C8.56279 18.6786 9.16945 18.6461 9.60279 18.9819C10.8811 19.9894 12.4953 20.5852 14.2395 20.5852C18.4645 20.5852 21.877 17.1294 21.8228 12.8936C21.7686 8.86355 18.3778 5.47272 14.3478 5.41856C10.1011 5.36439 6.65612 8.77689 6.65612 13.0019H8.59529C9.08279 13.0019 9.32112 13.5869 8.98529 13.9227L5.96279 16.9561C5.74612 17.1727 5.41029 17.1727 5.19362 16.9561L2.17112 13.9227C1.82445 13.5869 2.06279 13.0019 2.55029 13.0019H4.48945ZM13.1561 9.48105C13.1561 9.03689 13.5245 8.66855 13.9686 8.66855C14.4128 8.66855 14.7811 9.03689 14.7811 9.47022V13.1536L17.9011 15.0061C18.2803 15.2336 18.4103 15.7319 18.1828 16.1219C17.9553 16.5011 17.457 16.6311 17.067 16.4036L13.687 14.3994C13.362 14.2044 13.1561 13.8469 13.1561 13.4677V9.48105Z" fill="white"/>
    </symbol>

    <symbol id="chevron" viewBox="0 0 14 14">
        <g>
            <g clip-path="url(#clip0)">
                <path d="M0.647583 10.3342L5.35097 5.50084" stroke="white" stroke-width="2" stroke-linecap="round"/>
                <path d="M0.647441 0.667587L5.35083 5.50098" stroke="white" stroke-width="2" stroke-linecap="round"/>
            </g>
            <defs>
                <clipPath id="clip0">
                    <rect width="6" height="11"/>
                </clipPath>
            </defs>
        </g>
    </symbol>

    <symbol id="position" viewBox="0 0 23 23">
        <rect width="23" height="10"/>
        <rect y="13" width="23" height="10"/>
    </symbol>

    <symbol id="position-2" viewBox="0 0 23 23">
        <rect width="10" height="10"/>
        <rect y="13" width="10" height="10"/>
        <rect x="13" width="10" height="10"/>
        <rect x="13" y="13" width="10" height="10"/>
    </symbol>

    <symbol id="download" viewBox="0 0 34 34">
        <g id="icon/file/download_24px">
            <path id="icon/file/download_24px_2" fill-rule="evenodd" clip-rule="evenodd" d="M21.2499 13.4584H23.5024C24.7633 13.4584 25.3866 14.9884 24.4941 15.8809L17.9916 22.3834C17.4391 22.9359 16.5466 22.9359 15.9941 22.3834L9.49159 15.8809C8.59909 14.9884 9.23659 13.4584 10.4974 13.4584H12.7499V6.37502C12.7499 5.59585 13.3874 4.95835 14.1666 4.95835H19.8333C20.6124 4.95835 21.2499 5.59585 21.2499 6.37502V13.4584ZM8.49992 29.0417C7.72075 29.0417 7.08325 28.4042 7.08325 27.625C7.08325 26.8459 7.72075 26.2084 8.49992 26.2084H25.4999C26.2791 26.2084 26.9166 26.8459 26.9166 27.625C26.9166 28.4042 26.2791 29.0417 25.4999 29.0417H8.49992Z"/>
        </g>
    </symbol>

    <symbol id="arrow-up" viewBox="0 0 24 24">
        <path fill-rule="evenodd" clip-rule="evenodd" d="M4.29289 11.2929C3.90237 11.6834 3.90237 12.3166 4.29289 12.7071C4.68342 13.0976 5.31658 13.0976 5.70711 12.7071L11 7.41421L11 19C11 19.5523 11.4477 20 12 20C12.5523 20 13 19.5523 13 19L13 7.41421L18.2929 12.7071C18.6834 13.0976 19.3166 13.0976 19.7071 12.7071C20.0976 12.3166 20.0976 11.6834 19.7071 11.2929L12.7071 4.29289C12.3166 3.90237 11.6834 3.90237 11.2929 4.29289L4.29289 11.2929Z"/>
    </symbol>

    <symbol id="size" viewBox="0 0 24 24">
        <path fill-rule="evenodd" clip-rule="evenodd" d="M2.87868 2.87868C3.44129 2.31607 4.20435 2 5 2H8C8.55228 2 9 2.44772 9 3C9 3.55228 8.55228 4 8 4H5C4.73478 4 4.48043 4.10536 4.29289 4.29289C4.10536 4.48043 4 4.73478 4 5V8C4 8.55228 3.55228 9 3 9C2.44772 9 2 8.55228 2 8V5C2 4.20435 2.31607 3.44129 2.87868 2.87868ZM15 3C15 2.44772 15.4477 2 16 2H19C19.7957 2 20.5587 2.31607 21.1213 2.87868C21.6839 3.44129 22 4.20435 22 5V8C22 8.55228 21.5523 9 21 9C20.4477 9 20 8.55228 20 8V5C20 4.73478 19.8946 4.48043 19.7071 4.29289C19.5196 4.10536 19.2652 4 19 4H16C15.4477 4 15 3.55228 15 3ZM3 15C3.55228 15 4 15.4477 4 16V19C4 19.2652 4.10536 19.5196 4.29289 19.7071C4.48043 19.8946 4.73478 20 5 20H8C8.55228 20 9 20.4477 9 21C9 21.5523 8.55228 22 8 22H5C4.20435 22 3.44129 21.6839 2.87868 21.1213C2.31607 20.5587 2 19.7957 2 19V16C2 15.4477 2.44772 15 3 15ZM21 15C21.5523 15 22 15.4477 22 16V19C22 19.7957 21.6839 20.5587 21.1213 21.1213C20.5587 21.6839 19.7957 22 19 22H16C15.4477 22 15 21.5523 15 21C15 20.4477 15.4477 20 16 20H19C19.2652 20 19.5196 19.8946 19.7071 19.7071C19.8946 19.5196 20 19.2652 20 19V16C20 15.4477 20.4477 15 21 15Z" fill="#F2F2F2"/>
    </symbol>

    <symbol id="search" viewBox="0 0 31 31">
        <path fill-rule="evenodd" clip-rule="evenodd" d="M19.616 18.6924H20.6364L26.1131 24.1949C26.6426 24.7245 26.6426 25.5899 26.1131 26.1195C25.5835 26.6491 24.7181 26.6491 24.1885 26.1195L18.6989 20.6299V19.6095L18.3501 19.2479C16.5418 20.7979 14.0747 21.5987 11.4526 21.1595C7.8618 20.5524 4.9943 17.5558 4.55514 13.9391C3.88347 8.47535 8.4818 3.87702 13.9456 4.54868C17.5622 4.98785 20.5589 7.85535 21.166 11.4462C21.6051 14.0683 20.8043 16.5353 19.2543 18.3437L19.616 18.6924ZM7.07392 12.8799C7.07392 16.0962 9.67017 18.6924 12.8864 18.6924C16.1027 18.6924 18.6989 16.0962 18.6989 12.8799C18.6989 9.66368 16.1027 7.06743 12.8864 7.06743C9.67017 7.06743 7.07392 9.66368 7.07392 12.8799Z" fill="white"/>
    </symbol>

    <symbol id="resize" viewBox="0 0 37 36">
        <path fill-rule="evenodd" clip-rule="evenodd" d="M21.5833 4.5C21.5833 3.67157 22.2736 3 23.125 3H32.375C33.2264 3 33.9167 3.67157 33.9167 4.5V13.5C33.9167 14.3284 33.2264 15 32.375 15C31.5236 15 30.8333 14.3284 30.8333 13.5V6H23.125C22.2736 6 21.5833 5.32843 21.5833 4.5Z"/>
        <path fill-rule="evenodd" clip-rule="evenodd" d="M4.62499 21C5.47643 21 6.16666 21.6716 6.16666 22.5V30H13.875C14.7264 30 15.4167 30.6716 15.4167 31.5C15.4167 32.3284 14.7264 33 13.875 33H4.62499C3.77356 33 3.08333 32.3284 3.08333 31.5V22.5C3.08333 21.6716 3.77356 21 4.62499 21Z"/>
        <path fill-rule="evenodd" clip-rule="evenodd" d="M33.4651 3.43934C34.0672 4.02513 34.0672 4.97487 33.4651 5.56066L22.6735 16.0607C22.0714 16.6464 21.0953 16.6464 20.4932 16.0607C19.8912 15.4749 19.8912 14.5251 20.4932 13.9393L31.2849 3.43934C31.8869 2.85355 32.8631 2.85355 33.4651 3.43934Z"/>
        <path fill-rule="evenodd" clip-rule="evenodd" d="M16.5068 19.9393C17.1088 20.5251 17.1088 21.4749 16.5068 22.0607L5.71512 32.5607C5.11306 33.1464 4.13693 33.1464 3.53487 32.5607C2.93281 31.9749 2.93281 31.0251 3.53487 30.4393L14.3265 19.9393C14.9286 19.3536 15.9047 19.3536 16.5068 19.9393Z"/>
    </symbol>


</svg>
